<svg xmlns="http://www.w3.org/2000/svg" version="1.1" xmlns:xlink="http://www.w3.org/1999/xlink" xmlns:svgjs="http://svgjs.dev/svgjs" width="1000" height="1000" viewBox="0 0 1000 1000"><rect width="1000" height="1000" fill="#000000"></rect><g transform="matrix(0.7,0,0,0.7,149.57575757575756,282.1265587044535)"><svg viewBox="0 0 396 247" data-background-color="#ffffff" preserveAspectRatio="xMidYMid meet" height="623" width="1000" xmlns="http://www.w3.org/2000/svg" xmlns:xlink="http://www.w3.org/1999/xlink"><g id="tight-bounds" transform="matrix(1,0,0,1,0.2400000000000091,-0.09999999999999432)"><svg viewBox="0 0 395.52 247.2" height="247.2" width="395.52"><g><svg></svg></g><g><svg viewBox="0 0 395.52 247.2" height="247.2" width="395.52"><g transform="matrix(1,0,0,1,75.54432,92.1182189067524)"><svg viewBox="0 0 244.43135999999998 62.963562186495174" height="62.963562186495174" width="244.43135999999998"><g><svg viewBox="0 0 244.43135999999998 62.963562186495174" height="62.963562186495174" width="244.43135999999998"><g><svg viewBox="0 0 244.43135999999998 62.963562186495174" height="62.963562186495174" width="244.43135999999998"><g><svg viewBox="0 0 244.43135999999998 62.963562186495174" height="62.963562186495174" width="244.43135999999998"><g id="textblocktransform"><svg viewBox="0 0 244.43135999999998 62.963562186495174" height="62.963562186495174" width="244.43135999999998" id="textblock"><g><svg viewBox="0 0 244.43135999999998 62.963562186495174" height="62.963562186495174" width="244.43135999999998"><g transform="matrix(1,0,0,1,0,0)"><svg width="244.43135999999998" viewBox="2.3499999046325684 -35.650001525878906 139.9399871826172 36.05000305175781" height="62.963562186495174" data-palette-color="#111111"><path d="M15.55 0.4Q7.3 0.4 2.35-4.05L2.35-4.05 3.95-7.2Q6.55-5 9.28-4.05 12-3.1 15.6-3.1L15.6-3.1Q19.85-3.1 22.15-4.75 24.45-6.4 24.45-9.4L24.45-9.4Q24.45-11.15 23.35-12.25 22.25-13.35 20.45-14 18.65-14.65 15.6-15.35L15.6-15.35Q11.5-16.3 8.88-17.35 6.25-18.4 4.63-20.35 3-22.3 3-25.45L3-25.45Q3-28.45 4.58-30.78 6.15-33.1 9.08-34.38 12-35.65 15.85-35.65L15.85-35.65Q19.5-35.65 22.68-34.5 25.85-33.35 28.05-31.2L28.05-31.2 26.5-28.05Q24-30.2 21.43-31.18 18.85-32.15 15.85-32.15L15.85-32.15Q11.75-32.15 9.43-30.43 7.1-28.7 7.1-25.6L7.1-25.6Q7.1-22.95 9.15-21.6 11.2-20.25 15.35-19.3L15.35-19.3Q19.9-18.2 22.5-17.28 25.1-16.35 26.83-14.5 28.55-12.65 28.55-9.55L28.55-9.55Q28.55-6.55 26.98-4.3 25.4-2.05 22.45-0.83 19.5 0.4 15.55 0.4L15.55 0.4ZM57.5 0L35.2 0 35.2-35.25 57.5-35.25 57.5-31.85 39.25-31.85 39.25-19.6 56.5-19.6 56.5-16.2 39.25-16.2 39.25-3.4 57.5-3.4 57.5 0ZM88.7-6.9L88.7-35.25 92.55-35.25 92.55 0 89.4 0 68.15-28.35 68.15 0 64.3 0 64.3-35.25 67.45-35.25 88.7-6.9ZM105.34 0L101.24 0 101.24-35.25 105.34-35.25 105.34 0ZM138.44-6.9L138.44-35.25 142.29-35.25 142.29 0 139.14 0 117.89-28.35 117.89 0 114.04 0 114.04-35.25 117.19-35.25 138.44-6.9Z" opacity="1" transform="matrix(1,0,0,1,0,0)" fill="#ffffff" class="wordmark-text-0" data-fill-palette-color="primary" id="text-0"></path></svg></g></svg></g></svg></g></svg></g><g></g></svg></g></svg></g></svg></g><g><path d="M84.673 77.254A122.216 122.216 0 0 1 310.847 77.254L305.169 77.254A116.538 116.538 0 0 0 90.351 77.254L84.673 77.254M84.673 169.946A122.216 122.216 0 0 0 310.847 169.946L305.169 169.946A116.538 116.538 0 0 1 90.351 169.946L84.673 169.946" fill="#ffffff" stroke="transparent" data-fill-palette-color="tertiary"></path></g></svg></g><defs></defs></svg><rect width="395.52" height="247.2" fill="none" stroke="none" visibility="hidden"></rect></g></svg></g></svg>