<?xml version="1.0" standalone="no"?>
<!DOCTYPE svg PUBLIC "-//W3C//DTD SVG 20010904//EN"
 "http://www.w3.org/TR/2001/REC-SVG-20010904/DTD/svg10.dtd">
<svg version="1.0" xmlns="http://www.w3.org/2000/svg"
 width="2000.000000pt" height="2000.000000pt" viewBox="0 0 2000.000000 2000.000000"
 preserveAspectRatio="xMidYMid meet">
<metadata>
Created by potrace 1.14, written by Peter Selinger 2001-2017
</metadata>
<g transform="translate(0.000000,2000.000000) scale(0.100000,-0.100000)"
fill="#000000" stroke="none">
<path d="M5959 16226 c-2 -2 -60 -7 -129 -11 -69 -3 -138 -8 -155 -10 -16 -2
-61 -7 -100 -10 -38 -3 -77 -8 -85 -10 -8 -2 -40 -7 -70 -10 -108 -13 -126
-15 -185 -26 -33 -5 -118 -21 -190 -35 -168 -33 -164 -32 -183 -38 -9 -3 -32
-8 -51 -11 -19 -3 -37 -8 -41 -10 -3 -2 -18 -6 -31 -8 -96 -18 -423 -118 -629
-193 -134 -48 -172 -63 -255 -99 -16 -7 -55 -23 -85 -35 -291 -119 -738 -366
-1036 -571 -113 -77 -293 -207 -304 -219 -3 -3 -48 -39 -100 -81 -264 -211
-631 -566 -806 -779 -16 -19 -34 -39 -40 -45 -6 -5 -30 -35 -55 -65 -24 -30
-46 -57 -49 -60 -3 -3 -18 -23 -35 -45 -16 -22 -32 -42 -35 -45 -13 -10 -150
-200 -242 -336 -201 -294 -364 -588 -530 -955 -169 -371 -360 -981 -423 -1349
-3 -19 -15 -84 -25 -145 -21 -120 -46 -309 -56 -420 -3 -38 -7 -81 -10 -95
-22 -145 -22 -865 1 -1034 2 -17 6 -62 10 -101 13 -167 51 -419 91 -615 9 -41
18 -88 21 -105 2 -16 13 -63 24 -103 10 -40 21 -80 23 -90 24 -128 148 -516
232 -732 113 -286 309 -695 424 -880 5 -8 44 -71 86 -140 156 -254 333 -499
548 -754 22 -27 46 -54 51 -60 6 -6 44 -49 85 -95 162 -183 389 -400 636 -611
22 -19 256 -200 319 -248 45 -34 217 -152 221 -152 3 0 20 -11 38 -25 117 -89
511 -309 776 -432 500 -233 1102 -421 1600 -498 19 -3 46 -7 60 -10 14 -2 44
-7 68 -10 23 -3 61 -8 85 -11 48 -7 67 -9 158 -19 36 -3 79 -9 95 -12 51 -9
1006 -12 1089 -3 44 5 112 12 150 16 80 8 81 8 155 18 65 9 77 11 200 31 100
16 114 18 196 35 28 6 62 13 77 15 219 40 656 170 947 282 210 80 628 275 740
343 8 5 49 28 90 51 41 23 89 50 105 60 17 10 43 26 59 35 25 14 311 202 371
244 38 27 170 124 175 130 3 3 34 27 70 55 36 27 67 52 70 55 3 3 17 15 32 26
200 154 561 508 783 768 28 33 55 65 62 71 23 24 236 300 262 340 14 22 29 42
32 45 14 12 174 258 256 395 112 187 213 374 205 378 -4 2 -56 3 -116 3 l-109
-1 -16 -30 c-168 -313 -440 -720 -641 -958 -10 -12 -37 -44 -60 -72 -23 -27
-52 -61 -63 -75 -158 -187 -523 -543 -698 -682 -19 -14 -45 -36 -59 -48 -57
-51 -334 -254 -460 -337 -364 -242 -790 -462 -1195 -616 -137 -52 -491 -167
-561 -182 -11 -2 -71 -17 -134 -34 -63 -17 -128 -33 -145 -36 -16 -2 -41 -7
-55 -10 -14 -3 -63 -12 -110 -21 -47 -9 -94 -18 -105 -20 -10 -2 -37 -6 -60
-9 -55 -8 -96 -15 -125 -20 -14 -2 -50 -7 -80 -10 -30 -3 -62 -8 -70 -10 -8
-2 -53 -6 -100 -10 -47 -3 -98 -8 -115 -10 -57 -7 -351 -18 -485 -18 -135 0
-445 11 -478 17 -9 2 -51 7 -92 11 -109 9 -144 13 -187 19 -21 3 -58 8 -83 11
-25 3 -52 7 -60 10 -8 2 -40 7 -70 10 -30 4 -140 25 -245 46 -230 48 -199 41
-320 74 -1022 276 -1913 779 -2650 1494 -435 423 -767 852 -1068 1378 -60 105
-209 394 -213 413 0 3 -17 39 -36 80 -130 278 -277 706 -358 1045 -34 140 -35
145 -50 220 -5 28 -11 60 -14 71 -2 12 -7 37 -10 55 -3 19 -8 45 -10 59 -13
68 -50 350 -62 475 -26 276 -26 812 0 1090 15 152 20 196 41 340 3 22 8 56 11
75 4 28 24 142 49 270 68 350 245 899 401 1237 101 221 260 526 315 605 11 14
19 29 19 32 0 26 396 598 439 636 3 3 24 28 45 55 195 247 511 571 776 797 41
35 84 71 95 80 57 48 247 192 342 259 500 353 1082 642 1653 822 151 47 455
128 571 151 13 2 60 12 104 20 80 15 89 17 175 31 25 4 54 9 64 11 57 11 223
30 431 50 223 21 772 21 960 -1 17 -2 62 -6 100 -9 65 -6 176 -19 268 -32 38
-5 225 -36 322 -54 208 -37 562 -133 810 -220 408 -142 743 -300 1165 -550
133 -78 393 -259 555 -384 236 -183 636 -559 821 -771 294 -336 525 -662 739
-1040 37 -66 72 -122 76 -126 7 -4 213 -4 228 0 2 1 -1 7 -6 14 -6 6 -34 57
-63 112 -73 136 -81 151 -139 245 -28 45 -51 83 -51 86 0 21 -377 551 -464
652 -13 15 -56 65 -96 112 -207 242 -480 515 -700 700 -29 25 -58 50 -64 55
-147 132 -544 411 -811 570 -141 84 -523 282 -645 334 -219 94 -520 207 -655
246 -27 8 -81 24 -120 35 -174 53 -497 129 -655 154 -19 3 -46 8 -60 10 -35 6
-98 16 -145 22 -22 3 -51 7 -65 10 -14 2 -50 6 -80 9 -30 3 -68 7 -85 10 -16
2 -68 7 -115 10 -47 4 -96 9 -110 12 -27 5 -715 14 -721 9z"/>
<path d="M5017 12274 c-1 -1 -29 -4 -62 -5 -119 -5 -375 -80 -447 -130 -14
-11 -29 -19 -32 -19 -9 0 -145 -90 -181 -120 -74 -61 -204 -201 -251 -270 -80
-118 -127 -215 -168 -346 -25 -81 -30 -113 -45 -254 -12 -116 1 -344 23 -417
3 -10 8 -32 11 -49 21 -129 131 -367 228 -494 148 -196 261 -278 799 -578 444
-248 469 -264 539 -338 85 -90 118 -175 114 -290 -15 -391 -443 -622 -740
-400 -86 65 -145 143 -183 243 -24 64 -26 82 -30 283 -2 118 -6 217 -8 219
-10 10 -745 4 -755 -6 -11 -11 -14 -339 -3 -455 7 -79 46 -247 74 -318 82
-210 211 -386 400 -550 121 -104 359 -220 516 -250 433 -82 846 44 1142 350
244 251 360 548 359 918 -1 326 -95 559 -317 783 -137 138 -251 218 -505 354
-38 21 -117 63 -175 95 -58 31 -145 79 -195 105 -125 66 -265 149 -295 174
-140 121 -193 204 -223 350 -56 273 47 508 271 618 74 37 79 38 186 38 95 0
120 -4 174 -25 34 -13 62 -28 62 -32 0 -5 5 -8 11 -8 19 0 98 -71 135 -121 45
-62 80 -151 89 -227 4 -33 8 -174 10 -313 2 -140 4 -269 5 -286 l0 -33 379 0
c294 0 380 3 383 13 6 19 1 626 -6 690 -31 275 -155 527 -361 732 -181 181
-441 322 -645 349 -25 3 -58 9 -75 12 -31 5 -203 12 -208 8z"/>
<path d="M6779 12203 c-10 -56 -11 -4415 -1 -4425 11 -11 2084 -10 2095 1 5 5
8 177 8 382 0 308 -3 375 -14 384 -9 7 -239 10 -670 9 l-657 0 0 558 0 558
668 2 667 3 0 365 c1 201 -2 374 -6 385 -6 19 -18 19 -665 20 l-659 0 -3 497
-2 498 661 -1 c364 0 664 3 667 6 7 6 10 720 4 748 -4 16 -62 17 -1048 17
-574 0 -1045 -3 -1045 -7z"/>
<path d="M9461 12196 c-15 -18 -14 -4380 1 -4408 8 -17 36 -18 362 -18 298 0
355 2 366 15 12 15 13 69 5 405 -2 91 -6 314 -10 495 -3 182 -8 407 -10 500
-2 94 -7 321 -10 505 -4 184 -7 354 -8 378 -1 23 -1 42 1 42 2 0 20 -37 41
-82 56 -121 102 -219 161 -343 29 -60 64 -135 78 -165 13 -30 49 -107 79 -170
30 -63 66 -140 80 -170 14 -30 59 -124 99 -209 41 -85 74 -155 74 -157 0 -1
34 -73 75 -159 41 -87 75 -159 75 -160 0 -2 34 -74 76 -161 42 -88 85 -179 96
-204 11 -25 43 -92 70 -150 28 -58 61 -129 74 -157 l25 -53 288 0 c219 0 291
3 298 13 6 7 9 433 7 1142 -2 622 -3 1609 -4 2194 0 761 -4 1068 -11 1078 -18
21 -682 19 -702 -2 -13 -12 -15 -54 -12 -272 2 -142 7 -503 10 -803 4 -300 8
-630 10 -735 6 -459 7 -667 1 -672 -3 -4 -6 -1 -6 6 0 7 -9 31 -19 54 -10 23
-38 87 -61 142 -23 55 -50 118 -60 140 -10 22 -64 148 -120 280 -56 132 -112
263 -125 290 -12 28 -170 395 -351 818 l-329 767 -301 0 c-250 0 -304 -2 -313
-14z"/>
<path d="M12419 12188 c-2 -13 -4 -1011 -4 -2218 l0 -2195 385 0 385 0 0 2195
c0 1207 -2 2205 -4 2218 l-3 22 -378 0 -378 0 -3 -22z"/>
<path d="M13760 12191 c-12 -23 -7 -4375 5 -4403 7 -17 33 -18 360 -18 304 0
354 2 365 15 15 18 15 35 6 480 -4 182 -9 425 -11 540 -2 116 -7 332 -10 480
-3 149 -7 396 -10 550 l-5 280 106 -225 c58 -124 122 -259 141 -300 156 -331
183 -389 183 -400 0 -6 5 -10 10 -10 6 0 10 -6 10 -14 0 -8 13 -41 29 -73 17
-32 53 -107 82 -168 85 -182 130 -277 159 -340 40 -86 180 -384 230 -490 24
-49 67 -142 96 -205 l54 -115 292 -3 c202 -1 294 1 298 9 8 12 3 4374 -5 4407
l-5 22 -344 0 c-284 0 -347 -3 -359 -14 -11 -12 -13 -56 -11 -238 2 -122 5
-414 8 -648 3 -234 8 -643 12 -910 3 -267 6 -527 8 -578 1 -51 0 -95 -4 -97
-3 -2 -37 69 -75 158 -38 89 -79 185 -91 212 -12 28 -75 174 -140 325 -64 151
-125 295 -136 320 -40 92 -51 119 -169 394 -143 332 -142 331 -162 376 -8 19
-56 132 -107 250 -51 118 -100 233 -110 255 -10 22 -32 75 -50 118 l-32 77
-304 0 c-289 0 -304 -1 -314 -19z"/>
</g>
</svg>
