<svg xmlns="http://www.w3.org/2000/svg" version="1.1" xmlns:xlink="http://www.w3.org/1999/xlink" xmlns:svgjs="http://svgjs.dev/svgjs" width="2000" height="1247" viewBox="0 0 2000 1247"><g transform="matrix(1,0,0,1,-1.2121212121212466,0.504858299595071)"><svg viewBox="0 0 396 247" data-background-color="#ffffff" preserveAspectRatio="xMidYMid meet" height="1247" width="2000" xmlns="http://www.w3.org/2000/svg" xmlns:xlink="http://www.w3.org/1999/xlink"><g id="tight-bounds" transform="matrix(1,0,0,1,0.2400000000000091,-0.09999999999999432)"><svg viewBox="0 0 395.52 247.2" height="247.2" width="395.52"><g><svg></svg></g><g><svg viewBox="0 0 395.52 247.2" height="247.2" width="395.52"><g transform="matrix(1,0,0,1,75.54432,78.33024993274702)"><svg viewBox="0 0 244.43135999999998 90.53950013450594" height="90.53950013450594" width="244.43135999999998"><g><svg viewBox="0 0 244.43135999999998 90.53950013450594" height="90.53950013450594" width="244.43135999999998"><g><svg viewBox="0 0 244.43135999999998 90.53950013450594" height="90.53950013450594" width="244.43135999999998"><g><svg viewBox="0 0 244.43135999999998 90.53950013450594" height="90.53950013450594" width="244.43135999999998"><g id="textblocktransform"><svg viewBox="0 0 244.43135999999998 90.53950013450594" height="90.53950013450594" width="244.43135999999998" id="textblock"><g><svg viewBox="0 0 244.43135999999998 90.53950013450594" height="90.53950013450594" width="244.43135999999998"><g transform="matrix(1,0,0,1,0,0)"><svg width="244.43135999999998" viewBox="0.699999988079071 -35.29999923706055 96.63999938964844 35.79999923706055" height="90.53950013450594" data-palette-color="#7a9ca5"><path d="M10.5 0.5L10.5 0.5Q7.8 0.5 5.58-0.88 3.35-2.25 2.02-4.53 0.7-6.8 0.7-9.55L0.7-9.55 0.7-11.85Q0.7-12.1 0.95-12.1L0.95-12.1 6.55-12.1Q6.75-12.1 6.75-11.85L6.75-11.85 6.75-9.55Q6.75-7.9 7.85-6.73 8.95-5.55 10.5-5.55L10.5-5.55Q12.05-5.55 13.15-6.75 14.25-7.95 14.25-9.55L14.25-9.55Q14.25-11.4 11.85-12.75L11.85-12.75Q11.05-13.2 9.35-14.15 7.65-15.1 6.15-15.95L6.15-15.95Q3.4-17.55 2.08-19.98 0.75-22.4 0.75-25.45L0.75-25.45Q0.75-28.25 2.1-30.48 3.45-32.7 5.68-34 7.9-35.3 10.5-35.3L10.5-35.3Q13.15-35.3 15.38-33.98 17.6-32.65 18.93-30.43 20.25-28.2 20.25-25.45L20.25-25.45 20.25-21.35Q20.25-21.15 20.05-21.15L20.05-21.15 14.45-21.15Q14.25-21.15 14.25-21.35L14.25-21.35 14.2-25.45Q14.2-27.2 13.1-28.3 12-29.4 10.5-29.4L10.5-29.4Q8.95-29.4 7.85-28.23 6.75-27.05 6.75-25.45L6.75-25.45Q6.75-23.8 7.45-22.7 8.15-21.6 10-20.6L10-20.6Q10.25-20.45 10.98-20.08 11.7-19.7 12.55-19.23 13.4-18.75 14.08-18.4 14.75-18.05 14.9-17.95L14.9-17.95Q17.4-16.55 18.85-14.53 20.3-12.5 20.3-9.55L20.3-9.55Q20.3-6.7 18.98-4.42 17.65-2.15 15.43-0.83 13.2 0.5 10.5 0.5ZM40.15 0L24 0Q23.8 0 23.8-0.25L23.8-0.25 23.85-34.6Q23.85-34.8 24.05-34.8L24.05-34.8 40.1-34.8Q40.3-34.8 40.3-34.55L40.3-34.55 40.3-28.95Q40.3-28.75 40.1-28.75L40.1-28.75 29.85-28.75 29.85-20.95 40.1-20.95Q40.3-20.95 40.3-20.75L40.3-20.75 40.35-15.1Q40.35-14.9 40.15-14.9L40.15-14.9 29.85-14.9 29.85-6.15 40.15-6.15Q40.35-6.15 40.35-5.9L40.35-5.9 40.35-0.2Q40.35 0 40.15 0L40.15 0ZM50.25 0L45.25 0Q44.84 0 44.84-0.35L44.84-0.35 44.8-34.4Q44.8-34.8 45.2-34.8L45.2-34.8 49.7-34.8 58.15-15.1 57.9-34.4Q57.9-34.8 58.34-34.8L58.34-34.8 63.3-34.8Q63.59-34.8 63.59-34.4L63.59-34.4 63.65-0.3Q63.65 0 63.4 0L63.4 0 59 0 50.34-18.4 50.7-0.4Q50.7 0 50.25 0L50.25 0ZM73.89 0L68.24 0Q67.99 0 67.99-0.25L67.99-0.25 68.04-34.6Q68.04-34.8 68.24-34.8L68.24-34.8 73.84-34.8Q74.04-34.8 74.04-34.6L74.04-34.6 74.09-0.25Q74.09 0 73.89 0L73.89 0ZM83.94 0L78.94 0Q78.54 0 78.54-0.35L78.54-0.35 78.49-34.4Q78.49-34.8 78.89-34.8L78.89-34.8 83.39-34.8 91.84-15.1 91.59-34.4Q91.59-34.8 92.04-34.8L92.04-34.8 96.99-34.8Q97.29-34.8 97.29-34.4L97.29-34.4 97.34-0.3Q97.34 0 97.09 0L97.09 0 92.69 0 84.04-18.4 84.39-0.4Q84.39 0 83.94 0L83.94 0Z" opacity="1" transform="matrix(1,0,0,1,0,0)" fill="#000000" class="wordmark-text-0" data-fill-palette-color="primary" id="text-0"></path></svg></g></svg></g></svg></g></svg></g></svg></g></svg></g></svg></g><g><path d="M0 123.6c0-68.262 55.338-123.6 123.6-123.6 48.122 0 89.821 27.501 110.238 67.643h-4.602c-20.07-37.81-59.846-63.561-105.636-63.561-66.008 0-119.518 53.51-119.518 119.518 0 66.008 53.51 119.518 119.518 119.518 45.79 0 85.566-25.751 105.636-63.561h4.602c-20.417 40.143-62.116 67.643-110.238 67.643-68.262 0-123.6-55.338-123.6-123.6z" fill="#000000" stroke="transparent" data-fill-palette-color="tertiary"></path></g></svg></g><defs></defs></svg><rect width="395.52" height="247.2" fill="none" stroke="none" visibility="hidden"></rect></g></svg></g></svg>